<svg version="1.1" id="Layer_1" xmlns="http://www.w3.org/2000/svg" xmlns:xlink="http://www.w3.org/1999/xlink" x="0px" y="0px"
	 width="100%" viewBox="0 0 512 512" enable-background="new 0 0 512 512" xml:space="preserve">
<path fill="#010101" opacity="1.000000" stroke="none" 
	d="
M251.000000,513.000000 
	C167.353622,513.000000 84.207245,513.000000 1.030434,513.000000 
	C1.030434,342.395264 1.030434,171.790527 1.030434,1.092888 
	C171.563065,1.092888 342.126190,1.092888 512.844666,1.092888 
	C512.844666,171.666550 512.844666,342.333252 512.844666,513.000000 
	C425.790497,513.000000 338.645233,513.000000 251.000000,513.000000 
M156.689850,277.130554 
	C158.888275,276.359009 161.146072,275.723694 163.276138,274.795319 
	C190.323425,263.006958 206.013458,242.459213 207.411316,212.982956 
	C208.815933,183.364380 195.291412,161.059921 169.285934,146.717545 
	C147.527481,134.717468 123.788956,140.289917 100.559738,138.847946 
	C100.559738,186.138214 100.559738,232.700790 100.559738,279.861237 
	C107.086601,279.861237 113.378586,280.135162 119.638382,279.802826 
	C131.735718,279.160461 143.814896,278.176208 156.689850,277.130554 
M228.944031,193.438446 
	C214.644363,210.489471 211.364487,229.610397 220.346466,249.816544 
	C228.587326,268.355469 243.827393,278.625793 264.103180,279.906586 
	C285.220337,281.240509 301.810913,272.602997 312.540894,256.428436 
	C306.944397,249.924545 301.798889,243.944748 296.627655,237.935089 
	C286.684875,249.261749 276.074310,257.212219 259.296051,253.239883 
	C278.352722,236.276047 296.572113,220.057556 314.706909,203.914383 
	C298.943573,173.644318 253.856995,165.984619 228.944031,193.438446 
M380.320160,193.770218 
	C374.872192,209.629623 369.424194,225.489014 363.976227,241.348419 
	C363.621124,241.361435 363.266022,241.374451 362.910889,241.387466 
	C355.804688,220.010834 348.698486,198.634216 341.643280,177.411072 
	C332.244415,177.411072 323.215698,177.411072 314.084320,177.411072 
	C314.164124,178.290085 314.112640,178.809952 314.266235,179.259811 
	C325.391449,211.849579 336.499359,244.445450 347.791473,276.977386 
	C348.260956,278.329895 350.428040,279.906921 351.867035,279.971100 
	C358.849915,280.282379 365.858704,279.967804 372.848938,280.181519 
	C375.854095,280.273376 377.154205,279.228027 378.161469,276.396057 
	C387.917786,248.964920 397.843536,221.594040 407.708801,194.201584 
	C409.703400,188.663269 411.647156,183.106644 413.802917,177.026581 
	C408.821320,177.026581 404.673828,176.997253 400.526978,177.034378 
	C395.870300,177.076065 390.072784,175.522308 386.881317,177.722656 
	C383.739502,179.888763 383.234467,185.885315 381.585541,190.206146 
	C381.229919,191.138077 380.930206,192.091354 380.320160,193.770218 
M125.174034,336.516388 
	C125.741806,347.481476 126.309586,358.446533 126.887924,369.615753 
	C130.306671,369.615753 133.429596,369.615753 136.889130,369.615753 
	C138.153793,365.058960 139.433762,360.446991 140.713745,355.835022 
	C142.785812,359.507141 143.559021,363.198822 144.983902,366.619049 
	C145.558197,367.997559 147.424271,369.327332 148.944214,369.704132 
	C151.058838,370.228394 153.400696,369.836090 155.758133,369.836090 
	C156.878784,350.119537 157.951233,331.251251 159.031281,312.249146 
	C155.315765,312.249146 152.382263,312.249146 149.075745,312.249146 
	C148.662201,318.144012 148.264862,323.807770 147.867523,329.471497 
	C147.425812,329.524811 146.984085,329.578125 146.542374,329.631439 
	C144.955734,324.588531 143.369080,319.545624 141.428360,313.377319 
	C139.260345,319.954498 137.462173,325.409668 135.664001,330.864868 
	C135.324493,330.774841 134.984985,330.684845 134.645477,330.594818 
	C134.376541,324.508728 134.107605,318.422607 133.837433,312.308777 
	C130.290588,312.308777 127.237755,312.308777 123.938995,312.308777 
	C124.349770,320.278412 124.743019,327.908112 125.174034,336.516388 
M293.600616,339.499725 
	C293.600616,349.545471 293.600616,359.591217 293.600616,369.506714 
	C297.194092,369.506714 299.941101,369.506714 303.070923,369.506714 
	C303.070923,362.333160 303.070923,355.479340 303.070923,348.625519 
	C304.801758,353.733795 306.283020,358.877838 306.598999,364.092499 
	C306.918304,369.362335 309.411560,370.545105 313.913300,369.834503 
	C314.857605,369.685455 315.807678,369.572998 316.757996,369.443268 
	C316.757996,351.357666 316.757996,333.517517 316.757996,315.860931 
	C313.324524,315.860931 310.293762,315.860931 306.863586,315.860931 
	C306.863586,320.326874 306.863586,324.278870 306.863586,328.230865 
	C306.649658,328.242462 306.435730,328.254059 306.221771,328.265656 
	C305.141418,323.988251 304.061096,319.710846 303.000732,315.512573 
	C299.751617,315.512573 296.958710,315.512573 293.600677,315.512573 
	C293.600677,323.282898 293.600677,330.891327 293.600616,339.499725 
M353.002747,353.472321 
	C353.001556,343.668945 352.930328,333.864868 353.030548,324.062531 
	C353.076385,319.580353 351.144257,316.248413 346.818176,315.788788 
	C341.153198,315.186951 335.375977,315.641235 329.699615,315.641235 
	C329.699615,333.914764 329.699615,351.755524 329.699615,369.856171 
	C332.596436,369.856171 335.079010,369.856018 337.561584,369.856201 
	C352.443329,369.857147 353.002380,369.299683 353.002747,353.472321 
M250.372391,326.084412 
	C251.164307,322.719666 251.956207,319.354919 252.749557,315.984009 
	C243.598801,314.185669 243.329193,314.355133 241.337921,322.746948 
	C240.904572,324.573303 240.436737,326.391479 239.984787,328.213409 
	C239.534592,328.155243 239.084396,328.097107 238.634201,328.038940 
	C238.634201,324.000580 238.634201,319.962250 238.634201,315.709656 
	C235.147247,315.709656 232.284714,315.709656 229.425690,315.709656 
	C229.425690,333.853180 229.425690,351.604156 229.425690,369.584167 
	C232.484894,369.584167 235.227386,369.584167 238.282776,369.584167 
	C238.473099,365.231445 238.653030,361.116943 238.832947,357.002441 
	C242.510651,362.509460 240.136032,373.716278 252.469269,369.241333 
	C252.517456,368.919586 252.666153,368.574219 252.597137,368.279968 
	C252.217178,366.660187 251.806992,365.046570 251.365433,363.442291 
	C248.037888,351.352600 244.975952,339.256653 250.372391,326.084412 
M385.788025,335.928650 
	C382.846954,334.376434 379.764130,333.031952 377.034882,331.169342 
	C375.949951,330.428894 375.451874,328.587189 375.111206,327.146423 
	C375.010712,326.721252 376.362396,325.952759 377.048584,325.341583 
	C377.999207,326.444275 378.963470,327.535645 379.892395,328.656311 
	C380.183990,329.008057 380.380463,329.438599 380.550476,329.718018 
	C383.343018,329.718018 385.951141,329.718018 389.100433,329.718018 
	C389.100433,327.707703 389.118896,325.927063 389.097168,324.146851 
	C389.012360,317.197601 387.133514,315.349396 380.159332,315.329132 
	C365.513885,315.286560 365.572571,315.286835 365.500793,330.259644 
	C365.483887,333.785858 365.783752,336.434998 369.626678,338.304230 
	C380.163513,343.429565 380.061768,343.638153 379.842896,355.438080 
	C379.833618,355.937439 380.038483,356.582336 379.800385,356.910278 
	C378.969208,358.055145 377.987213,359.090515 377.062531,360.167511 
	C376.339172,359.096802 375.055206,358.058197 374.991699,356.949707 
	C374.746979,352.676697 374.892395,348.381348 374.892395,343.950165 
	C371.547485,343.950165 368.673309,343.950165 365.544098,343.950165 
	C365.544098,347.655609 365.544098,350.969757 365.544098,354.283936 
	C365.544098,369.978058 365.544098,369.978027 381.029358,369.841461 
	C386.777771,369.790741 388.959625,367.837128 389.065125,362.184784 
	C389.195587,355.193939 389.264130,348.192169 388.980774,341.210480 
	C388.913239,339.545837 387.343506,337.942139 385.788025,335.928650 
M263.781891,322.714905 
	C263.781891,338.301910 263.781891,353.888947 263.781891,369.512024 
	C269.861053,369.512024 275.416718,369.512024 281.121368,369.512024 
	C281.121368,366.261688 281.121368,363.345673 281.121368,360.285797 
	C278.431366,360.063690 276.020447,359.864624 273.547821,359.660492 
	C273.547821,354.215179 273.547821,349.148224 273.547821,343.854919 
	C276.206512,343.634583 278.620331,343.434570 281.001038,343.237274 
	C281.001038,340.046844 281.001038,337.187866 281.001038,334.269928 
	C278.308044,334.113617 276.021271,333.980896 273.688934,333.845551 
	C273.688934,330.881500 273.688934,328.202271 273.688934,325.436035 
	C276.374451,325.244019 278.649475,325.081390 280.980347,324.914734 
	C280.980347,321.606354 280.980347,318.592316 280.980347,315.629089 
	C275.116974,315.629089 269.692596,315.629089 263.782196,315.629089 
	C263.782196,317.861206 263.782196,319.822571 263.781891,322.714905 
M413.504272,306.885681 
	C409.725220,306.885681 405.946198,306.885681 402.069885,306.885681 
	C402.069885,308.879639 402.069885,310.324982 402.069885,311.934479 
	C404.037415,312.133789 405.797668,312.312103 408.274139,312.562988 
	C407.283569,316.555634 406.520813,320.242889 405.441254,323.834961 
	C403.903870,328.950409 403.515350,333.699158 406.685181,338.578186 
	C407.760223,340.232971 407.811462,343.730988 406.755768,345.376221 
	C403.269501,350.809387 403.999359,355.986023 406.050781,361.510956 
	C406.988464,364.036377 407.378754,366.765015 408.056793,369.564453 
	C405.637939,369.789215 404.003357,369.941101 402.195404,370.109131 
	C402.195404,371.816528 402.195404,373.352448 402.195404,375.227661 
	C406.179688,375.227661 409.831146,375.439392 413.446533,375.168762 
	C417.143646,374.892029 419.409576,373.197693 418.097015,368.902924 
	C417.077301,365.566650 416.518250,362.073364 415.308746,358.815369 
	C413.762268,354.649567 413.663574,350.862885 416.122406,346.969238 
	C417.711151,344.453430 419.036194,341.638519 416.893921,338.645050 
	C413.336060,333.673492 413.812439,328.508087 415.792023,323.060944 
	C416.919678,319.957977 417.124939,316.528076 418.153534,313.378662 
	C419.408051,309.537506 417.979126,307.678223 413.504272,306.885681 
M212.045059,325.217010 
	C213.642273,325.140656 215.239471,325.064331 216.885101,324.985687 
	C216.885101,321.608948 216.885101,318.671936 216.885101,315.614868 
	C211.075607,315.614868 205.513931,315.614868 199.721527,315.614868 
	C199.721527,333.777557 199.721527,351.637665 199.721527,369.576721 
	C205.628601,369.576721 211.190659,369.576721 216.730072,369.576721 
	C216.730072,366.227875 216.730072,363.179718 216.730072,360.142334 
	C213.925674,359.962524 211.516647,359.808075 209.154312,359.656616 
	C209.154312,354.086456 209.154312,348.972198 209.154312,343.768738 
	C211.825699,343.628601 214.267685,343.500488 216.853821,343.364838 
	C216.853821,340.181915 216.853821,337.276398 216.853821,334.232117 
	C214.156815,334.101654 211.727814,333.984131 208.792862,333.842163 
	C209.980331,330.793488 206.713821,327.184204 212.045059,325.217010 
M107.814766,318.254639 
	C107.442032,316.368011 107.069298,314.481384 106.671227,312.466553 
	C109.085999,312.256775 110.861893,312.102509 113.023895,311.914703 
	C112.933311,310.147125 112.854477,308.608765 112.768127,306.923767 
	C108.433022,306.923767 104.599777,306.725952 100.796906,306.980957 
	C97.192017,307.222687 95.308151,309.117737 96.367409,313.035858 
	C97.539734,317.372162 98.393356,321.809570 99.817070,326.058441 
	C101.063141,329.777161 100.948555,332.972870 98.992012,336.494232 
	C97.686211,338.844391 95.191566,341.334625 97.531242,344.650757 
	C101.176018,349.816711 101.325157,355.297913 98.778854,361.059174 
	C97.780624,363.317749 97.417122,365.854401 96.737228,368.256653 
	C95.459198,372.772339 96.826569,374.921631 101.531807,375.200775 
	C105.165375,375.416321 108.821953,375.243805 112.739845,375.243805 
	C112.739845,373.322937 112.739845,371.751984 112.739845,370.072662 
	C110.689636,369.903870 108.926888,369.758759 106.603622,369.567505 
	C107.471954,366.178284 107.979385,363.061493 109.077454,360.168854 
	C110.881653,355.416077 111.534286,350.946167 108.353317,346.462372 
	C106.343475,343.629364 106.289429,340.474915 108.375839,337.652191 
	C111.398552,333.562775 111.063751,329.326202 109.544235,324.868835 
	C108.901375,322.983063 108.503021,321.013977 107.814766,318.254639 
M187.700195,341.111572 
	C187.700195,338.851898 187.700195,336.592255 187.700195,334.264923 
	C184.653137,334.106628 182.372665,333.988159 179.937241,333.861633 
	C179.937241,330.901031 179.937241,328.235138 179.937241,325.456085 
	C182.629074,325.266510 184.902771,325.106384 187.272766,324.939453 
	C187.272766,321.639740 187.272766,318.611267 187.272766,315.614319 
	C181.413330,315.614319 175.985901,315.614319 170.368744,315.614319 
	C170.368744,333.745514 170.368744,351.584808 170.368744,369.494873 
	C176.214920,369.494873 181.751236,369.494873 187.394989,369.494873 
	C187.394989,366.221924 187.394989,363.312012 187.394989,360.200287 
	C184.709564,360.002502 182.310364,359.825775 179.827621,359.642914 
	C179.827621,354.154541 179.827621,349.096344 179.827621,344.537292 
	C182.729965,343.588043 185.199921,342.780212 187.700195,341.111572 
z"/>
<path fill="#F9F9F9" opacity="1.000000" stroke="none" 
	d="
M156.295715,277.232117 
	C143.814896,278.176208 131.735718,279.160461 119.638382,279.802826 
	C113.378586,280.135162 107.086601,279.861237 100.559738,279.861237 
	C100.559738,232.700790 100.559738,186.138214 100.559738,138.847946 
	C123.788956,140.289917 147.527481,134.717468 169.285934,146.717545 
	C195.291412,161.059921 208.815933,183.364380 207.411316,212.982956 
	C206.013458,242.459213 190.323425,263.006958 163.276138,274.795319 
	C161.146072,275.723694 158.888275,276.359009 156.295715,277.232117 
M173.043564,185.578156 
	C162.027725,169.895187 146.518768,165.097153 128.177689,166.822693 
	C128.177689,195.454910 128.177689,223.835419 128.177689,252.185226 
	C152.038055,254.179962 166.013596,245.102661 173.778458,232.093002 
	C182.832397,216.923569 182.448196,201.426361 173.043564,185.578156 
z"/>
<path fill="#FAFAFA" opacity="1.000000" stroke="none" 
	d="
M229.186142,193.180756 
	C253.856995,165.984619 298.943573,173.644318 314.706909,203.914383 
	C296.572113,220.057556 278.352722,236.276047 259.296051,253.239883 
	C276.074310,257.212219 286.684875,249.261749 296.627655,237.935089 
	C301.798889,243.944748 306.944397,249.924545 312.540894,256.428436 
	C301.810913,272.602997 285.220337,281.240509 264.103180,279.906586 
	C243.827393,278.625793 228.587326,268.355469 220.346466,249.816544 
	C211.364487,229.610397 214.644363,210.489471 229.186142,193.180756 
M270.587128,201.813232 
	C257.138336,200.727859 247.515991,206.004501 242.597275,217.162079 
	C238.529785,226.388748 239.231644,236.059921 244.558395,241.050552 
	C256.625336,229.613693 268.704529,218.165222 281.549896,205.990585 
	C277.468414,204.361069 274.429382,203.147751 270.587128,201.813232 
z"/>
<path fill="#FAFAFA" opacity="1.000000" stroke="none" 
	d="
M380.462433,193.402496 
	C380.930206,192.091354 381.229919,191.138077 381.585541,190.206146 
	C383.234467,185.885315 383.739502,179.888763 386.881317,177.722656 
	C390.072784,175.522308 395.870300,177.076065 400.526978,177.034378 
	C404.673828,176.997253 408.821320,177.026581 413.802917,177.026581 
	C411.647156,183.106644 409.703400,188.663269 407.708801,194.201584 
	C397.843536,221.594040 387.917786,248.964920 378.161469,276.396057 
	C377.154205,279.228027 375.854095,280.273376 372.848938,280.181519 
	C365.858704,279.967804 358.849915,280.282379 351.867035,279.971100 
	C350.428040,279.906921 348.260956,278.329895 347.791473,276.977386 
	C336.499359,244.445450 325.391449,211.849579 314.266235,179.259811 
	C314.112640,178.809952 314.164124,178.290085 314.084320,177.411072 
	C323.215698,177.411072 332.244415,177.411072 341.643280,177.411072 
	C348.698486,198.634216 355.804688,220.010834 362.910889,241.387466 
	C363.266022,241.374451 363.621124,241.361435 363.976227,241.348419 
	C369.424194,225.489014 374.872192,209.629623 380.462433,193.402496 
z"/>
<path fill="#F4F4F4" opacity="1.000000" stroke="none" 
	d="
M125.155151,336.027100 
	C124.743019,327.908112 124.349770,320.278412 123.938995,312.308777 
	C127.237755,312.308777 130.290588,312.308777 133.837433,312.308777 
	C134.107605,318.422607 134.376541,324.508728 134.645477,330.594818 
	C134.984985,330.684845 135.324493,330.774841 135.664001,330.864868 
	C137.462173,325.409668 139.260345,319.954498 141.428360,313.377319 
	C143.369080,319.545624 144.955734,324.588531 146.542374,329.631439 
	C146.984085,329.578125 147.425812,329.524811 147.867523,329.471497 
	C148.264862,323.807770 148.662201,318.144012 149.075745,312.249146 
	C152.382263,312.249146 155.315765,312.249146 159.031281,312.249146 
	C157.951233,331.251251 156.878784,350.119537 155.758133,369.836090 
	C153.400696,369.836090 151.058838,370.228394 148.944214,369.704132 
	C147.424271,369.327332 145.558197,367.997559 144.983902,366.619049 
	C143.559021,363.198822 142.785812,359.507141 140.713745,355.835022 
	C139.433762,360.446991 138.153793,365.058960 136.889130,369.615753 
	C133.429596,369.615753 130.306671,369.615753 126.887924,369.615753 
	C126.309586,358.446533 125.741806,347.481476 125.155151,336.027100 
z"/>
<path fill="#F5F5F5" opacity="1.000000" stroke="none" 
	d="
M293.600647,338.999756 
	C293.600677,330.891327 293.600677,323.282898 293.600677,315.512573 
	C296.958710,315.512573 299.751617,315.512573 303.000732,315.512573 
	C304.061096,319.710846 305.141418,323.988251 306.221771,328.265656 
	C306.435730,328.254059 306.649658,328.242462 306.863586,328.230865 
	C306.863586,324.278870 306.863586,320.326874 306.863586,315.860931 
	C310.293762,315.860931 313.324524,315.860931 316.757996,315.860931 
	C316.757996,333.517517 316.757996,351.357666 316.757996,369.443268 
	C315.807678,369.572998 314.857605,369.685455 313.913300,369.834503 
	C309.411560,370.545105 306.918304,369.362335 306.598999,364.092499 
	C306.283020,358.877838 304.801758,353.733795 303.070923,348.625519 
	C303.070923,355.479340 303.070923,362.333160 303.070923,369.506714 
	C299.941101,369.506714 297.194092,369.506714 293.600616,369.506714 
	C293.600616,359.591217 293.600616,349.545471 293.600647,338.999756 
z"/>
<path fill="#EEEEEE" opacity="1.000000" stroke="none" 
	d="
M353.002747,353.964996 
	C353.002380,369.299683 352.443329,369.857147 337.561584,369.856201 
	C335.079010,369.856018 332.596436,369.856171 329.699615,369.856171 
	C329.699615,351.755524 329.699615,333.914764 329.699615,315.641235 
	C335.375977,315.641235 341.153198,315.186951 346.818176,315.788788 
	C351.144257,316.248413 353.076385,319.580353 353.030548,324.062531 
	C352.930328,333.864868 353.001556,343.668945 353.002747,353.964996 
M343.694153,356.098541 
	C343.693878,347.149414 343.760315,338.199585 343.663239,329.251526 
	C343.619446,325.219238 343.243042,325.031403 339.041504,325.460876 
	C339.041504,336.986542 339.041504,348.517883 339.041504,360.049194 
	C339.457916,360.331116 339.874329,360.613037 340.290741,360.894989 
	C341.421295,359.603027 342.551880,358.311096 343.694153,356.098541 
z"/>
<path fill="#F0F0F0" opacity="1.000000" stroke="none" 
	d="
M250.279968,326.488464 
	C244.975952,339.256653 248.037888,351.352600 251.365433,363.442291 
	C251.806992,365.046570 252.217178,366.660187 252.597137,368.279968 
	C252.666153,368.574219 252.517456,368.919586 252.464828,369.241699 
	C240.136032,373.716278 242.510651,362.509460 238.832947,357.002441 
	C238.653030,361.116943 238.473099,365.231445 238.282776,369.584167 
	C235.227386,369.584167 232.484894,369.584167 229.425690,369.584167 
	C229.425690,351.604156 229.425690,333.853180 229.425690,315.709656 
	C232.284714,315.709656 235.147247,315.709656 238.634201,315.709656 
	C238.634201,319.962250 238.634201,324.000580 238.634201,328.038940 
	C239.084396,328.097107 239.534592,328.155243 239.984787,328.213409 
	C240.436737,326.391479 240.904572,324.573303 241.337921,322.746948 
	C243.329193,314.355133 243.598801,314.185669 252.749557,315.984009 
	C251.956207,319.354919 251.164307,322.719666 250.279968,326.488464 
z"/>
<path fill="#F3F3F3" opacity="1.000000" stroke="none" 
	d="
M386.126373,336.119537 
	C387.343506,337.942139 388.913239,339.545837 388.980774,341.210480 
	C389.264130,348.192169 389.195587,355.193939 389.065125,362.184784 
	C388.959625,367.837128 386.777771,369.790741 381.029358,369.841461 
	C365.544098,369.978027 365.544098,369.978058 365.544098,354.283936 
	C365.544098,350.969757 365.544098,347.655609 365.544098,343.950165 
	C368.673309,343.950165 371.547485,343.950165 374.892395,343.950165 
	C374.892395,348.381348 374.746979,352.676697 374.991699,356.949707 
	C375.055206,358.058197 376.339172,359.096802 377.062500,360.167511 
	C377.987213,359.090515 378.969208,358.055145 379.800385,356.910278 
	C380.038483,356.582336 379.833618,355.937439 379.842896,355.438080 
	C380.061768,343.638153 380.163513,343.429565 369.626678,338.304230 
	C365.783752,336.434998 365.483887,333.785858 365.500793,330.259644 
	C365.572571,315.286835 365.513885,315.286560 380.159332,315.329132 
	C387.133514,315.349396 389.012360,317.197601 389.097168,324.146851 
	C389.118896,325.927063 389.100433,327.707703 389.100433,329.718018 
	C385.951141,329.718018 383.343018,329.718018 380.550476,329.718018 
	C380.380463,329.438599 380.183990,329.008057 379.892395,328.656311 
	C378.963470,327.535645 377.999207,326.444275 377.048584,325.341583 
	C376.362396,325.952759 375.010712,326.721252 375.111206,327.146423 
	C375.451874,328.587189 375.949951,330.428894 377.034882,331.169342 
	C379.764130,333.031952 382.846954,334.376434 386.126373,336.119537 
z"/>
<path fill="#F3F3F3" opacity="1.000000" stroke="none" 
	d="
M263.782043,322.249390 
	C263.782196,319.822571 263.782196,317.861206 263.782196,315.629089 
	C269.692596,315.629089 275.116974,315.629089 280.980347,315.629089 
	C280.980347,318.592316 280.980347,321.606354 280.980347,324.914734 
	C278.649475,325.081390 276.374451,325.244019 273.688934,325.436035 
	C273.688934,328.202271 273.688934,330.881500 273.688934,333.845551 
	C276.021271,333.980896 278.308044,334.113617 281.001038,334.269928 
	C281.001038,337.187866 281.001038,340.046844 281.001038,343.237274 
	C278.620331,343.434570 276.206512,343.634583 273.547821,343.854919 
	C273.547821,349.148224 273.547821,354.215179 273.547821,359.660492 
	C276.020447,359.864624 278.431366,360.063690 281.121368,360.285797 
	C281.121368,363.345673 281.121368,366.261688 281.121368,369.512024 
	C275.416718,369.512024 269.861053,369.512024 263.781891,369.512024 
	C263.781891,353.888947 263.781891,338.301910 263.782043,322.249390 
z"/>
<path fill="#EFEFEF" opacity="1.000000" stroke="none" 
	d="
M413.909424,306.928955 
	C417.979126,307.678223 419.408051,309.537506 418.153534,313.378662 
	C417.124939,316.528076 416.919678,319.957977 415.792023,323.060944 
	C413.812439,328.508087 413.336060,333.673492 416.893921,338.645050 
	C419.036194,341.638519 417.711151,344.453430 416.122406,346.969238 
	C413.663574,350.862885 413.762268,354.649567 415.308746,358.815369 
	C416.518250,362.073364 417.077301,365.566650 418.097015,368.902924 
	C419.409576,373.197693 417.143646,374.892029 413.446533,375.168762 
	C409.831146,375.439392 406.179688,375.227661 402.195404,375.227661 
	C402.195404,373.352448 402.195404,371.816528 402.195404,370.109131 
	C404.003357,369.941101 405.637939,369.789215 408.056793,369.564453 
	C407.378754,366.765015 406.988464,364.036377 406.050781,361.510956 
	C403.999359,355.986023 403.269501,350.809387 406.755768,345.376221 
	C407.811462,343.730988 407.760223,340.232971 406.685181,338.578186 
	C403.515350,333.699158 403.903870,328.950409 405.441254,323.834961 
	C406.520813,320.242889 407.283569,316.555634 408.274139,312.562988 
	C405.797668,312.312103 404.037415,312.133789 402.069885,311.934479 
	C402.069885,310.324982 402.069885,308.879639 402.069885,306.885681 
	C405.946198,306.885681 409.725220,306.885681 413.909424,306.928955 
z"/>
<path fill="#EBEBEB" opacity="1.000000" stroke="none" 
	d="
M211.580322,325.221741 
	C206.713821,327.184204 209.980331,330.793488 208.792862,333.842163 
	C211.727814,333.984131 214.156815,334.101654 216.853821,334.232117 
	C216.853821,337.276398 216.853821,340.181915 216.853821,343.364838 
	C214.267685,343.500488 211.825699,343.628601 209.154312,343.768738 
	C209.154312,348.972198 209.154312,354.086456 209.154312,359.656616 
	C211.516647,359.808075 213.925674,359.962524 216.730072,360.142334 
	C216.730072,363.179718 216.730072,366.227875 216.730072,369.576721 
	C211.190659,369.576721 205.628601,369.576721 199.721527,369.576721 
	C199.721527,351.637665 199.721527,333.777557 199.721527,315.614868 
	C205.513931,315.614868 211.075607,315.614868 216.885101,315.614868 
	C216.885101,318.671936 216.885101,321.608948 216.885101,324.985687 
	C215.239471,325.064331 213.642273,325.140656 211.580322,325.221741 
z"/>
<path fill="#EEEEEE" opacity="1.000000" stroke="none" 
	d="
M107.904152,318.668701 
	C108.503021,321.013977 108.901375,322.983063 109.544235,324.868835 
	C111.063751,329.326202 111.398552,333.562775 108.375839,337.652191 
	C106.289429,340.474915 106.343475,343.629364 108.353317,346.462372 
	C111.534286,350.946167 110.881653,355.416077 109.077454,360.168854 
	C107.979385,363.061493 107.471954,366.178284 106.603622,369.567505 
	C108.926888,369.758759 110.689636,369.903870 112.739845,370.072662 
	C112.739845,371.751984 112.739845,373.322937 112.739845,375.243805 
	C108.821953,375.243805 105.165375,375.416321 101.531807,375.200775 
	C96.826569,374.921631 95.459198,372.772339 96.737228,368.256653 
	C97.417122,365.854401 97.780624,363.317749 98.778854,361.059174 
	C101.325157,355.297913 101.176018,349.816711 97.531242,344.650757 
	C95.191566,341.334625 97.686211,338.844391 98.992012,336.494232 
	C100.948555,332.972870 101.063141,329.777161 99.817070,326.058441 
	C98.393356,321.809570 97.539734,317.372162 96.367409,313.035858 
	C95.308151,309.117737 97.192017,307.222687 100.796906,306.980957 
	C104.599777,306.725952 108.433022,306.923767 112.768127,306.923767 
	C112.854477,308.608765 112.933311,310.147125 113.023895,311.914703 
	C110.861893,312.102509 109.085999,312.256775 106.671227,312.466553 
	C107.069298,314.481384 107.442032,316.368011 107.904152,318.668701 
z"/>
<path fill="#EFEFEF" opacity="1.000000" stroke="none" 
	d="
M187.685043,341.541962 
	C185.199921,342.780212 182.729965,343.588043 179.827621,344.537292 
	C179.827621,349.096344 179.827621,354.154541 179.827621,359.642914 
	C182.310364,359.825775 184.709564,360.002502 187.394989,360.200287 
	C187.394989,363.312012 187.394989,366.221924 187.394989,369.494873 
	C181.751236,369.494873 176.214920,369.494873 170.368744,369.494873 
	C170.368744,351.584808 170.368744,333.745514 170.368744,315.614319 
	C175.985901,315.614319 181.413330,315.614319 187.272766,315.614319 
	C187.272766,318.611267 187.272766,321.639740 187.272766,324.939453 
	C184.902771,325.106384 182.629074,325.266510 179.937241,325.456085 
	C179.937241,328.235138 179.937241,330.901031 179.937241,333.861633 
	C182.372665,333.988159 184.653137,334.106628 187.700195,334.264923 
	C187.700195,336.592255 187.700195,338.851898 187.685043,341.541962 
z"/>
<path fill="#020202" opacity="1.000000" stroke="none" 
	d="
M173.237274,185.885498 
	C182.448196,201.426361 182.832397,216.923569 173.778458,232.093002 
	C166.013596,245.102661 152.038055,254.179962 128.177689,252.185226 
	C128.177689,223.835419 128.177689,195.454910 128.177689,166.822693 
	C146.518768,165.097153 162.027725,169.895187 173.237274,185.885498 
z"/>
<path fill="#080808" opacity="1.000000" stroke="none" 
	d="
M270.988739,201.873840 
	C274.429382,203.147751 277.468414,204.361069 281.549896,205.990585 
	C268.704529,218.165222 256.625336,229.613693 244.558395,241.050552 
	C239.231644,236.059921 238.529785,226.388748 242.597275,217.162079 
	C247.515991,206.004501 257.138336,200.727859 270.988739,201.873840 
z"/>
<path fill="#161616" opacity="1.000000" stroke="none" 
	d="
M343.688293,356.558838 
	C342.551880,358.311096 341.421295,359.603027 340.290741,360.894989 
	C339.874329,360.613037 339.457916,360.331116 339.041504,360.049194 
	C339.041504,348.517883 339.041504,336.986542 339.041504,325.460876 
	C343.243042,325.031403 343.619446,325.219238 343.663239,329.251526 
	C343.760315,338.199585 343.693878,347.149414 343.688293,356.558838 
z"/>
</svg>