<svg width="1000" height="800" viewBox="0 0 1000 800" fill="none" xmlns="http://www.w3.org/2000/svg" role="img" aria-label="Top universities by selected fellows">
  <defs>
    <radialGradient id="glowU" cx="50%" cy="0%" r="80%">
      <stop offset="0%" stop-color="#FFFFFF" stop-opacity="0.05"/>
      <stop offset="55%" stop-color="#FFFFFF" stop-opacity="0"/>
    </radialGradient>
  </defs>
  <rect x="1" y="1" width="998" height="798" rx="18" fill="#0D0D0D" stroke="#2E2E2E" stroke-width="2"/>
  <rect x="1" y="1" width="998" height="798" rx="18" fill="url(#glowU)"/>
  <text x="48" y="58" font-family="'Helvetica Neue', Arial, sans-serif" font-size="32" font-weight="800" letter-spacing="-0.5" fill="#FFFFFF">Where our fellows study</text>
  <text x="48" y="92" font-family="'Helvetica Neue', Arial, sans-serif" font-size="19" fill="#B8B8B8">Top 10 universities by selected fellows (campuses merged)</text>

  <g font-family="'Helvetica Neue', Arial, sans-serif">
    <!-- each item: label (left) + value (right) on one line, full-width bar beneath -->
    <!-- 1 -->
    <text x="48" y="150" font-size="22" font-weight="600" fill="#F5F5F5">FAST NUCES</text>
    <text x="952" y="150" font-size="22" font-weight="800" fill="#FFFFFF" text-anchor="end">105</text>
    <rect x="48" y="162" width="904" height="16" rx="5" fill="#222222"/>
    <rect x="48" y="162" width="904" height="16" rx="5" fill="#F5F5F5"/>
    <!-- 2 -->
    <text x="48" y="212" font-size="22" font-weight="600" fill="#F5F5F5">University of Education</text>
    <text x="952" y="212" font-size="22" font-weight="800" fill="#FFFFFF" text-anchor="end">104</text>
    <rect x="48" y="224" width="904" height="16" rx="5" fill="#222222"/>
    <rect x="48" y="224" width="895" height="16" rx="5" fill="#E0E0E0"/>
    <!-- 3 -->
    <text x="48" y="274" font-size="22" font-weight="600" fill="#F5F5F5">Punjab University (PUCIT)</text>
    <text x="952" y="274" font-size="22" font-weight="800" fill="#FFFFFF" text-anchor="end">71</text>
    <rect x="48" y="286" width="904" height="16" rx="5" fill="#222222"/>
    <rect x="48" y="286" width="611" height="16" rx="5" fill="#C8C8C8"/>
    <!-- 4 -->
    <text x="48" y="336" font-size="22" font-weight="600" fill="#F5F5F5">COMSATS Islamabad</text>
    <text x="952" y="336" font-size="22" font-weight="800" fill="#FFFFFF" text-anchor="end">42</text>
    <rect x="48" y="348" width="904" height="16" rx="5" fill="#222222"/>
    <rect x="48" y="348" width="362" height="16" rx="5" fill="#AEAEAE"/>
    <!-- 5 -->
    <text x="48" y="398" font-size="22" font-weight="600" fill="#F5F5F5">UET</text>
    <text x="952" y="398" font-size="22" font-weight="800" fill="#FFFFFF" text-anchor="end">37</text>
    <rect x="48" y="410" width="904" height="16" rx="5" fill="#222222"/>
    <rect x="48" y="410" width="319" height="16" rx="5" fill="#AEAEAE"/>
    <!-- 6 -->
    <text x="48" y="460" font-size="22" font-weight="600" fill="#F5F5F5">Virtual University</text>
    <text x="952" y="460" font-size="22" font-weight="800" fill="#FFFFFF" text-anchor="end">32</text>
    <rect x="48" y="472" width="904" height="16" rx="5" fill="#222222"/>
    <rect x="48" y="472" width="276" height="16" rx="5" fill="#969696"/>
    <!-- 7 -->
    <text x="48" y="522" font-size="22" font-weight="600" fill="#F5F5F5">NUML</text>
    <text x="952" y="522" font-size="22" font-weight="800" fill="#FFFFFF" text-anchor="end">31</text>
    <rect x="48" y="534" width="904" height="16" rx="5" fill="#222222"/>
    <rect x="48" y="534" width="267" height="16" rx="5" fill="#969696"/>
    <!-- 8 -->
    <text x="48" y="584" font-size="22" font-weight="600" fill="#F5F5F5">UCP</text>
    <text x="952" y="584" font-size="22" font-weight="800" fill="#FFFFFF" text-anchor="end">24</text>
    <rect x="48" y="596" width="904" height="16" rx="5" fill="#222222"/>
    <rect x="48" y="596" width="207" height="16" rx="5" fill="#808080"/>
    <!-- 9 -->
    <text x="48" y="646" font-size="22" font-weight="600" fill="#F5F5F5">NUST</text>
    <text x="952" y="646" font-size="22" font-weight="800" fill="#FFFFFF" text-anchor="end">23</text>
    <rect x="48" y="658" width="904" height="16" rx="5" fill="#222222"/>
    <rect x="48" y="658" width="198" height="16" rx="5" fill="#808080"/>
    <!-- 10 -->
    <text x="48" y="708" font-size="22" font-weight="600" fill="#F5F5F5">UMT</text>
    <text x="952" y="708" font-size="22" font-weight="800" fill="#FFFFFF" text-anchor="end">20</text>
    <rect x="48" y="720" width="904" height="16" rx="5" fill="#222222"/>
    <rect x="48" y="720" width="172" height="16" rx="5" fill="#707070"/>
  </g>

  <text x="48" y="776" font-family="'Helvetica Neue', Arial, sans-serif" font-size="19" fill="#B8B8B8">The biggest feeders turned out across multiple campuses.</text>
</svg>
