<svg width="1000" height="520" viewBox="0 0 1000 520" fill="none" xmlns="http://www.w3.org/2000/svg" role="img" aria-label="Top countries outside Pakistan by selected fellows">
  <defs>
    <radialGradient id="glowC" cx="50%" cy="0%" r="80%">
      <stop offset="0%" stop-color="#FFFFFF" stop-opacity="0.05"/>
      <stop offset="55%" stop-color="#FFFFFF" stop-opacity="0"/>
    </radialGradient>
  </defs>
  <rect x="1" y="1" width="998" height="518" rx="18" fill="#0D0D0D" stroke="#262626" stroke-width="2"/>
  <rect x="1" y="1" width="998" height="518" rx="18" fill="url(#glowC)"/>
  <text x="48" y="66" font-family="'Helvetica Neue', Arial, sans-serif" font-size="32" font-weight="800" letter-spacing="-0.5" fill="#F5F5F5">Reaching 30 countries</text>
  <text x="48" y="100" font-family="'Helvetica Neue', Arial, sans-serif" font-size="19" fill="#8C8C8C">Top countries outside Pakistan, by selected fellows</text>

  <g font-family="'Helvetica Neue', Arial, sans-serif" font-size="24" fill="#CFCFCF" font-weight="500">
    <!-- label x=48 (to 250), bar x=260 max 620 (val/117*620), value end x=950 -->
    <text x="48" y="166">India</text>
    <rect x="260" y="142" width="620" height="30" rx="5" fill="#F5F5F5"/>
    <text x="950" y="166" text-anchor="end" fill="#F5F5F5" font-weight="800">117</text>

    <text x="48" y="226">Nepal</text>
    <rect x="260" y="202" width="58" height="30" rx="5" fill="#9A9A9A"/>
    <text x="950" y="226" text-anchor="end" fill="#F5F5F5" font-weight="800">11</text>

    <text x="48" y="286">USA</text>
    <rect x="260" y="262" width="42" height="30" rx="5" fill="#7A7A7A"/>
    <text x="950" y="286" text-anchor="end" fill="#F5F5F5" font-weight="800">8</text>

    <text x="48" y="346">UK</text>
    <rect x="260" y="322" width="32" height="30" rx="5" fill="#6A6A6A"/>
    <text x="950" y="346" text-anchor="end" fill="#F5F5F5" font-weight="800">6</text>

    <text x="48" y="406">Nigeria</text>
    <rect x="260" y="382" width="27" height="30" rx="5" fill="#5A5A5A"/>
    <text x="950" y="406" text-anchor="end" fill="#F5F5F5" font-weight="800">5</text>

    <text x="48" y="466">Egypt</text>
    <rect x="260" y="442" width="21" height="30" rx="5" fill="#4A4A4A"/>
    <text x="950" y="466" text-anchor="end" fill="#F5F5F5" font-weight="800">4</text>
  </g>
</svg>
