<svg width="800" height="380" viewBox="0 0 800 380" fill="none" xmlns="http://www.w3.org/2000/svg" role="img" aria-label="A running list of things learned and things to learn next">
  <rect x="1" y="1" width="798" height="378" rx="20" fill="#F8FAFC" stroke="#E2E8F0" stroke-width="2"/>
  <text x="48" y="60" font-family="ui-sans-serif, system-ui, sans-serif" font-size="20" font-weight="700" fill="#334155">Things I've learned &amp; what's next</text>

  <g font-family="ui-sans-serif, system-ui, sans-serif">
    <!-- done -->
    <circle cx="60" cy="104" r="10" fill="#22C55E"/>
    <path d="M55 104 l3 3 l7 -7" stroke="#FFFFFF" stroke-width="2" fill="none" stroke-linecap="round" stroke-linejoin="round"/>
    <rect x="84" y="98" width="300" height="10" rx="5" fill="#86EFAC"/>

    <circle cx="60" cy="150" r="10" fill="#22C55E"/>
    <path d="M55 150 l3 3 l7 -7" stroke="#FFFFFF" stroke-width="2" fill="none" stroke-linecap="round" stroke-linejoin="round"/>
    <rect x="84" y="144" width="240" height="10" rx="5" fill="#86EFAC"/>

    <!-- todo -->
    <circle cx="60" cy="196" r="10" fill="none" stroke="#CBD5E1" stroke-width="2"/>
    <rect x="84" y="190" width="360" height="10" rx="5" fill="#E2E8F0"/>

    <circle cx="60" cy="242" r="10" fill="none" stroke="#CBD5E1" stroke-width="2"/>
    <rect x="84" y="236" width="280" height="10" rx="5" fill="#E2E8F0"/>

    <circle cx="60" cy="288" r="10" fill="none" stroke="#CBD5E1" stroke-width="2"/>
    <rect x="84" y="282" width="320" height="10" rx="5" fill="#E2E8F0"/>
  </g>

  <text x="48" y="344" font-family="ui-sans-serif, system-ui, sans-serif" font-size="14" fill="#94A3B8">Keep one list so you are never short on what to do next.</text>
</svg>
